# xmcd
#
# Track frame offsets:
#	183
#	16163
#	28525
#	39085
#	46860
#	60690
#	71525
#	77525
#	87980
#	97550
#	108815
#	122065
#	139455
#	146038
#	153428
#	171730
#
# Disc length: 2403 seconds
#
# Revision: 0
# Processed by: cddbd v1.5PL3 Copyright (c) Steve Scherf et al.
# Submitted via: audiograbber 1.81.02
#
DISCID=c8096110
DTITLE=Various Artist - JA-CD 2000 - Negro Spirituals
DYEAR=1955
DGENRE=Gospel
TTITLE0=The Golden Gate Quartet - Go Where I Send Thee
TTITLE1=The Stars of Faith - Live Up In Heaven
TTITLE2=Sister Rosetta Tharpe and White Gospel Four - We Shall Overcome
TTITLE3=The Stars of Faith - Travellin' Shoes
TTITLE4=The Stars of Faith - Amazing Grace
TTITLE5=The Golden Gate Quartet - When The Moon Goes Down
TTITLE6=Paul Robeson - Didn't My Lord Deliver Daniel
TTITLE7=The Golden Gate Quartet - I'm A Pilgrim
TTITLE8=Paul Robeson - Swing Low, Sweet Chariot
TTITLE9=The Golden Gate Quartet - Downward Road
TTITLE10=The Stars of Faith - If I Were You
TTITLE11=Sister Rosetta Tharpe - I Cannot Feel At Home In This World Anymore
TTITLE12=Sister Rosetta Tharpe and White Gospel Four - Old Time Religion
TTITLE13=White Gospel Four - There Is A Meeting Here Tonight
TTITLE14=Sister Rosetta Tharpe - My Mother's Prayer
TTITLE15=White Gospel Four - There Is A Balm In Gilead
EXTD=
EXTT0=
EXTT1=
EXTT2=
EXTT3=
EXTT4=
EXTT5=
EXTT6=
EXTT7=
EXTT8=
EXTT9=
EXTT10=
EXTT11=
EXTT12=
EXTT13=
EXTT14=
EXTT15=
PLAYORDER=
